<svg width="30" height="31" viewBox="0 0 30 31" fill="none" xmlns="http://www.w3.org/2000/svg">
<rect x="3" y="0.5" width="24" height="24" rx="11.52" fill="url(#paint0_diamond_16507_2988)" fill-opacity="0.74"/>
<g filter="url(#filter0_d_16507_2988)">
<path d="M6.33323 6.63568C10.5581 0.317216 19.9698 0.5646 23.9548 7.09999C27.6831 13.2135 24.1532 21.3311 17.1572 22.7351C16.656 22.8348 15.8825 22.9409 15.4385 22.9704C14.928 23.0037 14.2892 22.9723 13.704 22.8864C5.85046 21.7252 1.96707 13.1646 6.33323 6.63568ZM15.5031 22.1184C15.6988 21.4898 14.8154 21.1991 14.5385 21.8009C14.4046 22.0926 14.4083 22.1101 14.6538 22.3317C14.7932 22.4581 14.9391 22.5597 14.9769 22.5578C15.156 22.5495 15.444 22.3095 15.5031 22.1184ZM15.9138 21.6098C16.0541 21.9578 16.0671 21.9661 16.1732 21.7843C16.4723 21.2729 16.2332 20.384 15.7108 20.0655C14.8338 19.5311 13.7077 20.1412 13.7077 21.1501C13.7077 21.344 13.7492 21.6163 13.8 21.7548C13.8923 22.0077 13.8923 22.0077 14.0206 21.6994C14.3981 20.7929 15.5612 20.7375 15.9138 21.6098ZM10.4049 21.0615C6.32861 16.8994 9.20769 9.91629 15 9.91629C20.772 9.91629 23.7175 17.0886 19.5868 21.0846C18.552 22.0861 20.3631 21.0994 21.6581 19.9566C28.4954 13.9224 24.1754 2.56952 15.0203 2.51045C6.04061 2.45229 1.56461 13.6557 8.12307 19.7748C8.52092 20.1458 9.27507 20.7172 9.8003 21.044C10.3246 21.3708 10.8028 21.6384 10.8618 21.6384C10.9209 21.6384 10.7151 21.3791 10.4049 21.0615ZM12.5446 21.2148C12.3258 20.6914 12.4089 19.7591 12.7292 19.1461C13.6523 17.3812 16.3514 17.3914 17.28 19.1637C17.5791 19.7332 17.6409 20.7966 17.4074 21.3504C17.208 21.8231 17.5809 21.5886 18.0018 20.9766C19.3514 19.0151 18.5677 16.2763 16.4049 15.3966C13.5332 14.2289 10.5849 16.9169 11.4849 19.8818C11.6141 20.3055 11.8338 20.7403 12.0969 21.0911C12.3231 21.392 12.5354 21.6384 12.5695 21.6384C12.6951 21.6384 12.6914 21.5655 12.5446 21.2148ZM11.508 21.092C9.79015 18.7206 11.4258 15.1575 14.4471 14.6904C17.8661 14.1606 20.4988 18.3218 18.4948 21.0874C18.0766 21.6652 18.24 21.6329 18.9794 20.9904C23.0557 17.4477 20.7286 10.688 15.3378 10.4092C10.2978 10.1489 7.14184 15.8138 10.0449 19.9114C10.3135 20.2898 10.7898 20.8132 11.1046 21.0735C11.4194 21.3329 11.7018 21.5304 11.7323 21.512C11.7628 21.4935 11.6621 21.3043 11.508 21.092ZM13.2231 21.1428C13.2092 20.2215 14.0465 19.4018 15 19.4018C15.9628 19.4018 16.7861 20.2169 16.7797 21.1658C16.7778 21.5923 16.7778 21.5923 16.9477 21.2231C17.5671 19.8818 16.5092 18.2849 15.0018 18.2849C13.9661 18.2849 13.0301 19.1037 12.9111 20.1135C12.8705 20.4588 12.8991 20.7523 13.0034 21.0781C13.0865 21.3357 13.1705 21.5461 13.1917 21.5461C13.212 21.5461 13.2268 21.3643 13.2231 21.1428Z" fill="#E7E7FF"/>
</g>
<defs>
<filter id="filter0_d_16507_2988" x="-1" y="0.5" width="32" height="32" filterUnits="userSpaceOnUse" color-interpolation-filters="sRGB">
<feFlood flood-opacity="0" result="BackgroundImageFix"/>
<feColorMatrix in="SourceAlpha" type="matrix" values="0 0 0 0 0 0 0 0 0 0 0 0 0 0 0 0 0 0 127 0" result="hardAlpha"/>
<feOffset dy="4"/>
<feGaussianBlur stdDeviation="2"/>
<feColorMatrix type="matrix" values="0 0 0 0 0 0 0 0 0 0 0 0 0 0 0 0 0 0 0.32 0"/>
<feBlend mode="normal" in2="BackgroundImageFix" result="effect1_dropShadow_16507_2988"/>
<feBlend mode="normal" in="SourceGraphic" in2="effect1_dropShadow_16507_2988" result="shape"/>
</filter>
<radialGradient id="paint0_diamond_16507_2988" cx="0" cy="0" r="1" gradientUnits="userSpaceOnUse" gradientTransform="translate(15 12.5) rotate(90) scale(12)">
<stop offset="0.35" stop-color="#6B4EFF"/>
<stop offset="0.98" stop-color="#402F99"/>
</radialGradient>
</defs>
</svg>
