<svg width="45" height="45" viewBox="0 0 45 45" fill="none" xmlns="http://www.w3.org/2000/svg">
<rect width="45" height="45" rx="8" fill="#E7E7FF"/>
<path d="M15.2357 32.3763C14.9356 30.5049 14.7154 30.0478 12.9143 27.5355C10.5983 24.3066 10.4982 23.882 11.2827 20.6233C11.6976 18.9006 11.6976 18.9006 11.7163 14.5723C11.7336 10.6646 11.759 10.1913 11.9818 9.71266C12.4954 8.61065 16.5379 6.0794 17.0702 6.52696C17.1889 6.62702 17.6118 7.72633 18.0107 8.97168C18.8979 11.7409 18.5657 11.5313 22.0638 11.5313C25.5139 11.5313 25.2057 11.7328 26.1236 8.88649C27.0642 5.97122 26.9374 6.04019 29.0761 7.28688C32.4247 9.23805 32.4207 9.23129 32.3634 14.0382C32.3127 18.2353 32.3127 18.2353 32.829 20.6395C33.5868 24.1727 33.6014 24.1091 31.2534 27.4192C29.2868 30.1939 29.06 30.6333 28.8879 32.0152C28.7772 32.9144 28.7692 32.9253 28.1768 33.2471C27.3764 33.6811 27.3323 33.673 26.4105 32.9252C25.61 32.2762 25.61 32.2762 21.9158 32.2911C18.2215 32.3073 18.2215 32.3073 17.6879 32.9307C17.3944 33.2728 17.0608 33.5878 16.9461 33.6297C16.8314 33.673 16.4231 33.5486 16.0376 33.3566C15.3785 33.0267 15.3305 32.9672 15.2357 32.3763ZM18.7138 21.3142C18.6751 20.987 18.5124 20.9167 15.9375 20.1054C14.4326 19.6308 13.1932 19.2414 13.1825 19.24C13.1425 19.2373 12.6022 21.1087 12.6022 21.2507C12.6022 21.3304 12.7716 21.4846 12.9784 21.5928C13.1865 21.7009 13.6962 21.8848 14.1124 22.0025C14.618 22.1431 15.2357 22.1958 15.9709 22.1607C17.7026 22.0782 18.7659 21.7496 18.7138 21.3142ZM31.2133 21.4981C31.5482 21.1993 31.5482 21.1993 31.276 20.292C31.1266 19.7917 30.9572 19.3549 30.9012 19.3198C30.8438 19.2833 29.6004 19.6335 28.1368 20.0973C25.6006 20.9005 25.4752 20.9573 25.4352 21.3007C25.3965 21.6306 25.4512 21.6753 26.1023 21.851C26.4918 21.9551 26.9761 22.0795 27.1776 22.1269C27.379 22.1742 27.89 22.2134 28.3116 22.2134C29.3696 22.2121 30.8104 21.8564 31.2133 21.4981Z" fill="url(#paint0_radial_16507_2979)"/>
<path d="M14.5967 35.1522C14.9316 33.8095 14.8675 33.8406 16.1096 34.4004C17.0488 34.8237 17.0488 34.8237 17.7279 34.0894C18.4056 33.3539 18.363 35.1441 22.0078 35.1522C25.654 35.159 25.6967 33.3687 26.3864 34.1016C27.0775 34.8358 27.0775 34.8358 28.0514 34.3964C29.2562 33.8528 29.2095 33.8217 29.503 35.3469C29.7458 36.6099 29.7458 36.6099 29.2121 37.0845C28.2302 37.9607 27.7046 37.9526 26.137 37.0385C24.9376 36.3394 24.8096 36.4178 24.1172 36.4219C23.5008 36.426 23.2159 36.6396 23.0625 36.4219C22.8515 36.2705 22.7456 36.2705 22.0078 36.2705C21.2514 36.2705 21.0692 36.192 20.9531 36.4219C20.7422 36.5625 20.7124 36.2745 20.092 36.2705C19.4249 36.2664 19.1875 36.3516 18.0027 37.0142C17.2676 37.4266 16.5032 37.7633 16.3017 37.7633C16.1016 37.7633 15.692 37.6186 15.3905 37.4414C14.3619 36.833 14.2552 36.526 14.5967 35.1522Z" fill="url(#paint1_radial_16507_2979)"/>
<defs>
<radialGradient id="paint0_radial_16507_2979" cx="0" cy="0" r="1" gradientUnits="userSpaceOnUse" gradientTransform="translate(22.0621 20.055) rotate(90) scale(13.5833 11.2209)">
<stop offset="0.02" stop-color="#6B4EFF" stop-opacity="0.7"/>
<stop offset="1" stop-color="#402F99"/>
</radialGradient>
<radialGradient id="paint1_radial_16507_2979" cx="0" cy="0" r="1" gradientUnits="userSpaceOnUse" gradientTransform="translate(22.0406 35.5619) rotate(90) scale(2.20138 7.6186)">
<stop offset="0.02" stop-color="#6B4EFF" stop-opacity="0.5"/>
<stop offset="1" stop-color="#402F99"/>
</radialGradient>
</defs>
</svg>
