<svg width="28" height="24" viewBox="0 0 28 24" fill="none" xmlns="http://www.w3.org/2000/svg">
<rect width="28" height="24" rx="10" fill="#CDCFD0"/>
<path d="M19.9085 11.5837L13.9633 17.5288C13.235 18.2572 12.2472 18.6663 11.2172 18.6663C10.1871 18.6663 9.19932 18.2572 8.47099 17.5288C7.74267 16.8005 7.3335 15.8127 7.3335 14.7827C7.3335 13.7527 7.74267 12.7648 8.47099 12.0365L14.4162 6.09134C14.9017 5.60579 15.5603 5.33301 16.2469 5.33301C16.9336 5.33301 17.5922 5.60579 18.0777 6.09134C18.5633 6.57689 18.8361 7.23544 18.8361 7.92212C18.8361 8.60879 18.5633 9.26734 18.0777 9.75289L12.1261 15.6981C11.8833 15.9408 11.554 16.0772 11.2107 16.0772C10.8674 16.0772 10.5381 15.9408 10.2953 15.6981C10.0525 15.4553 9.91614 15.126 9.91614 14.7827C9.91614 14.4393 10.0525 14.1101 10.2953 13.8673L15.7876 8.38143" stroke="#202325" stroke-width="1.25" stroke-linecap="round" stroke-linejoin="round"/>
</svg>
