<svg width="20" height="20" viewBox="0 0 20 20" fill="none" xmlns="http://www.w3.org/2000/svg">
<path d="M15.9085 9.58367L9.96333 15.5288C9.235 16.2572 8.24717 16.6663 7.21716 16.6663C6.18715 16.6663 5.19932 16.2572 4.47099 15.5288C3.74267 14.8005 3.3335 13.8127 3.3335 12.7827C3.3335 11.7527 3.74267 10.7648 4.47099 10.0365L10.4162 4.09134C10.9017 3.60579 11.5603 3.33301 12.2469 3.33301C12.9336 3.33301 13.5922 3.60579 14.0777 4.09134C14.5633 4.57689 14.8361 5.23544 14.8361 5.92212C14.8361 6.60879 14.5633 7.26734 14.0777 7.75289L8.12608 13.6981C7.8833 13.9408 7.55403 14.0772 7.21069 14.0772C6.86735 14.0772 6.53808 13.9408 6.2953 13.6981C6.05253 13.4553 5.91614 13.126 5.91614 12.7827C5.91614 12.4393 6.05253 12.1101 6.2953 11.8673L11.7876 6.38143" stroke="#202325" stroke-width="1.25" stroke-linecap="round" stroke-linejoin="round"/>
</svg>
