<svg width="25" height="25" viewBox="0 0 25 25" fill="none" xmlns="http://www.w3.org/2000/svg">
<circle cx="12.2727" cy="12.2119" r="12" fill="#6B4EFF"/>
<path d="M12 5C8.13306 5 5 8.13306 5 12C5 15.8669 8.13306 19 12 19C15.8669 19 19 15.8669 19 12C19 8.13306 15.8669 5 12 5ZM14.2581 9.74194C14.7577 9.74194 15.1613 10.1456 15.1613 10.6452C15.1613 11.1448 14.7577 11.5484 14.2581 11.5484C13.7585 11.5484 13.3548 11.1448 13.3548 10.6452C13.3548 10.1456 13.7585 9.74194 14.2581 9.74194ZM9.74194 9.74194C10.2415 9.74194 10.6452 10.1456 10.6452 10.6452C10.6452 11.1448 10.2415 11.5484 9.74194 11.5484C9.24234 11.5484 8.83871 11.1448 8.83871 10.6452C8.83871 10.1456 9.24234 9.74194 9.74194 9.74194ZM15.2403 14.546C14.4359 15.5113 13.256 16.0645 12 16.0645C10.744 16.0645 9.56411 15.5113 8.75968 14.546C8.37581 14.0859 9.07016 13.5101 9.45403 13.9673C10.0863 14.7266 11.0121 15.1585 12 15.1585C12.9879 15.1585 13.9137 14.7238 14.546 13.9673C14.9242 13.5101 15.6214 14.0859 15.2403 14.546Z" fill="white"/>
</svg>
