<svg width="25" height="25" viewBox="0 0 25 25" fill="none" xmlns="http://www.w3.org/2000/svg">
<circle cx="12.2727" cy="12.2119" r="12" fill="#6B4EFF"/>
<path d="M12.135 6C8.74591 6 6 8.74591 6 12.135C6 15.5241 8.74591 18.27 12.135 18.27C15.5241 18.27 18.27 15.5241 18.27 12.135C18.27 8.74591 15.5241 6 12.135 6ZM14.114 10.156C14.5519 10.156 14.9056 10.5097 14.9056 10.9476C14.9056 11.3854 14.5519 11.7392 14.114 11.7392C13.6762 11.7392 13.3224 11.3854 13.3224 10.9476C13.3224 10.5097 13.6762 10.156 14.114 10.156ZM10.156 10.156C10.5938 10.156 10.9476 10.5097 10.9476 10.9476C10.9476 11.3854 10.5938 11.7392 10.156 11.7392C9.71811 11.7392 9.36435 11.3854 9.36435 10.9476C9.36435 10.5097 9.71811 10.156 10.156 10.156ZM14.9749 14.3664C14.2699 15.2124 13.2358 15.6973 12.135 15.6973C11.0342 15.6973 10.0001 15.2124 9.29509 14.3664C8.95865 13.9631 9.56721 13.4585 9.90364 13.8592C10.4578 14.5247 11.2692 14.9032 12.135 14.9032C13.0008 14.9032 13.8122 14.5222 14.3664 13.8592C14.6978 13.4585 15.3089 13.9631 14.9749 14.3664Z" fill="#E7E7FF"/>
</svg>
