<svg width="22" height="22" viewBox="0 0 22 22" fill="none" xmlns="http://www.w3.org/2000/svg">
<g clip-path="url(#clip0_16446_1781)">
<path d="M21.749 10.9543C21.749 10.1022 21.6782 9.48033 21.5251 8.83545H11.5672V12.6817H17.4123C17.2945 13.6375 16.6581 15.077 15.2439 16.0443L15.2241 16.1731L18.3726 18.5566L18.5907 18.5779C20.5941 16.7699 21.749 14.1097 21.749 10.9543Z" fill="#4285F4"/>
<path d="M11.5671 21.0884C14.4307 21.0884 16.8347 20.1671 18.5907 18.5779L15.2439 16.0444C14.3483 16.6547 13.1462 17.0808 11.5671 17.0808C8.76241 17.0808 6.38195 15.2729 5.53338 12.7739L5.409 12.7842L2.13512 15.2602L2.09231 15.3765C3.8364 18.7621 7.41891 21.0884 11.5671 21.0884Z" fill="#34A853"/>
<path d="M5.53352 12.7742C5.30962 12.1293 5.18004 11.4383 5.18004 10.7243C5.18004 10.0103 5.30962 9.3194 5.52174 8.67452L5.51581 8.53717L2.20091 6.02148L2.09245 6.0719C1.37362 7.47685 0.961159 9.05455 0.961159 10.7243C0.961159 12.3941 1.37362 13.9718 2.09245 15.3767L5.53352 12.7742Z" fill="#FBBC05"/>
<path d="M11.5671 4.36736C13.5587 4.36736 14.9021 5.20801 15.6681 5.91053L18.6614 3.05457C16.8231 1.38478 14.4307 0.359863 11.5671 0.359863C7.41894 0.359863 3.83643 2.68605 2.09233 6.07169L5.52162 8.67431C6.38197 6.17537 8.76243 4.36736 11.5671 4.36736Z" fill="#EB4335"/>
</g>
<defs>
<clipPath id="clip0_16446_1781">
<rect width="20.8" height="20.8" fill="white" transform="translate(0.960014 0.359863)"/>
</clipPath>
</defs>
</svg>
