<svg width="25" height="25" viewBox="0 0 25 25" fill="none" xmlns="http://www.w3.org/2000/svg">
<circle cx="12.2727" cy="12.2119" r="12" fill="#6B4EFF"/>
<path d="M17 16H7C6.44771 16 6 15.5523 6 15V9C6 8.44771 6.44771 8 7 8H17C17.5523 8 18 8.44771 18 9V15C18 15.5523 17.5523 16 17 16ZM8.66667 10.4167V9.58333C8.66667 9.44527 8.55473 9.33333 8.41667 9.33333H7.58333C7.44527 9.33333 7.33333 9.44527 7.33333 9.58333V10.4167C7.33333 10.5547 7.44527 10.6667 7.58333 10.6667H8.41667C8.55473 10.6667 8.66667 10.5547 8.66667 10.4167ZM10.6667 10.4167V9.58333C10.6667 9.44527 10.5547 9.33333 10.4167 9.33333H9.58333C9.44527 9.33333 9.33333 9.44527 9.33333 9.58333V10.4167C9.33333 10.5547 9.44527 10.6667 9.58333 10.6667H10.4167C10.5547 10.6667 10.6667 10.5547 10.6667 10.4167ZM12.6667 10.4167V9.58333C12.6667 9.44527 12.5547 9.33333 12.4167 9.33333H11.5833C11.4453 9.33333 11.3333 9.44527 11.3333 9.58333V10.4167C11.3333 10.5547 11.4453 10.6667 11.5833 10.6667H12.4167C12.5547 10.6667 12.6667 10.5547 12.6667 10.4167ZM14.6667 10.4167V9.58333C14.6667 9.44527 14.5547 9.33333 14.4167 9.33333H13.5833C13.4453 9.33333 13.3333 9.44527 13.3333 9.58333V10.4167C13.3333 10.5547 13.4453 10.6667 13.5833 10.6667H14.4167C14.5547 10.6667 14.6667 10.5547 14.6667 10.4167ZM16.6667 10.4167V9.58333C16.6667 9.44527 16.5547 9.33333 16.4167 9.33333H15.5833C15.4453 9.33333 15.3333 9.44527 15.3333 9.58333V10.4167C15.3333 10.5547 15.4453 10.6667 15.5833 10.6667H16.4167C16.5547 10.6667 16.6667 10.5547 16.6667 10.4167ZM9.66667 12.4167V11.5833C9.66667 11.4453 9.55473 11.3333 9.41667 11.3333H8.58333C8.44527 11.3333 8.33333 11.4453 8.33333 11.5833V12.4167C8.33333 12.5547 8.44527 12.6667 8.58333 12.6667H9.41667C9.55473 12.6667 9.66667 12.5547 9.66667 12.4167ZM11.6667 12.4167V11.5833C11.6667 11.4453 11.5547 11.3333 11.4167 11.3333H10.5833C10.4453 11.3333 10.3333 11.4453 10.3333 11.5833V12.4167C10.3333 12.5547 10.4453 12.6667 10.5833 12.6667H11.4167C11.5547 12.6667 11.6667 12.5547 11.6667 12.4167ZM13.6667 12.4167V11.5833C13.6667 11.4453 13.5547 11.3333 13.4167 11.3333H12.5833C12.4453 11.3333 12.3333 11.4453 12.3333 11.5833V12.4167C12.3333 12.5547 12.4453 12.6667 12.5833 12.6667H13.4167C13.5547 12.6667 13.6667 12.5547 13.6667 12.4167ZM15.6667 12.4167V11.5833C15.6667 11.4453 15.5547 11.3333 15.4167 11.3333H14.5833C14.4453 11.3333 14.3333 11.4453 14.3333 11.5833V12.4167C14.3333 12.5547 14.4453 12.6667 14.5833 12.6667H15.4167C15.5547 12.6667 15.6667 12.5547 15.6667 12.4167ZM8.66667 14.4167V13.5833C8.66667 13.4453 8.55473 13.3333 8.41667 13.3333H7.58333C7.44527 13.3333 7.33333 13.4453 7.33333 13.5833V14.4167C7.33333 14.5547 7.44527 14.6667 7.58333 14.6667H8.41667C8.55473 14.6667 8.66667 14.5547 8.66667 14.4167ZM14.6667 14.4167V13.5833C14.6667 13.4453 14.5547 13.3333 14.4167 13.3333H9.58333C9.44527 13.3333 9.33333 13.4453 9.33333 13.5833V14.4167C9.33333 14.5547 9.44527 14.6667 9.58333 14.6667H14.4167C14.5547 14.6667 14.6667 14.5547 14.6667 14.4167ZM16.6667 14.4167V13.5833C16.6667 13.4453 16.5547 13.3333 16.4167 13.3333H15.5833C15.4453 13.3333 15.3333 13.4453 15.3333 13.5833V14.4167C15.3333 14.5547 15.4453 14.6667 15.5833 14.6667H16.4167C16.5547 14.6667 16.6667 14.5547 16.6667 14.4167Z" fill="white"/>
</svg>
