<svg width="363" height="92" viewBox="0 0 363 92" fill="none" xmlns="http://www.w3.org/2000/svg">
<path d="M7.168 70.672C10.9227 81.8507 18.176 87.44 28.928 87.44C36.1813 87.44 41.216 85.392 44.032 81.296C46.9333 77.1147 48.384 71.3973 48.384 64.144V0.399994H52.224V64.144C52.224 82.2347 44.4587 91.28 28.928 91.28C21.5893 91.28 15.9147 89.4453 11.904 85.776C7.97867 82.1067 4.864 77.072 2.56 70.672H7.168ZM83.444 86.16H125.172L98.932 24.336L71.028 90H66.932L98.932 14.48L130.932 90H83.444V86.16ZM176.767 52.752L194.175 90H189.951L172.031 51.6C172.202 51.5147 172.927 51.1733 174.207 50.576C175.572 49.8933 176.511 49.424 177.023 49.168C177.535 48.8267 178.388 48.272 179.583 47.504C180.778 46.736 181.674 46.0107 182.271 45.328C182.868 44.56 183.508 43.7067 184.191 42.768C184.959 41.744 185.514 40.6347 185.855 39.44C186.196 38.16 186.367 36.7947 186.367 35.344C186.367 29.968 183.807 26 178.687 23.44C173.567 20.88 167.21 19.6 159.615 19.6H149.375V90H145.535V15.76H159.615C169.684 15.76 177.279 17.5093 182.399 21.008C187.604 24.5067 190.207 29.2853 190.207 35.344C190.207 39.2693 188.884 42.768 186.239 45.84C183.594 48.8267 180.436 51.1307 176.767 52.752ZM265.679 15.76L233.679 91.28L201.679 15.76H205.775L233.679 81.424L261.583 15.76H265.679ZM280.16 15.76H284V90H280.16V15.76ZM327.869 14.224C338.45 14.224 345.96 16.5707 350.397 21.264L347.837 24.08C343.741 20.0693 337.256 18.064 328.381 18.064C315.069 18.064 308.413 23.3547 308.413 33.936C308.413 38.032 310.034 41.3173 313.277 43.792C316.52 46.1813 320.445 48.016 325.053 49.296C329.746 50.576 334.397 51.9413 339.005 53.392C343.698 54.7573 347.666 57.0187 350.909 60.176C354.152 63.248 355.773 67.3013 355.773 72.336C355.773 78.224 353.341 82.9173 348.477 86.416C343.613 89.9147 336.573 91.664 327.357 91.664C322.834 91.664 318.354 91.0667 313.917 89.872C309.565 88.6773 306.322 86.928 304.189 84.624L306.749 81.808C311.101 85.8187 317.8 87.824 326.845 87.824C335.122 87.824 341.352 86.288 345.533 83.216C349.8 80.144 351.933 76.56 351.933 72.464C351.933 68.1973 350.312 64.7413 347.069 62.096C343.826 59.4507 339.858 57.488 335.165 56.208C330.557 54.8427 325.906 53.4773 321.213 52.112C316.605 50.6613 312.68 48.4427 309.437 45.456C306.194 42.4693 304.573 38.544 304.573 33.68C304.573 27.1093 306.749 22.2453 311.101 19.088C315.538 15.8453 321.128 14.224 327.869 14.224Z" fill="#E7E7FF"/>
</svg>
