<svg width="613" height="250" viewBox="0 0 613 250" fill="none" xmlns="http://www.w3.org/2000/svg">
<path d="M34.7211 63.9136C78.7308 -1.90376 176.769 0.673155 218.279 68.7501C257.115 132.433 220.346 216.99 147.471 231.615C142.25 232.654 134.192 233.76 129.567 234.067C124.25 234.414 117.596 234.087 111.5 233.192C29.6923 221.096 -10.7596 131.923 34.7211 63.9136ZM130.24 225.192C132.279 218.644 123.077 215.615 120.192 221.885C118.798 224.923 118.837 225.106 121.394 227.414C122.846 228.731 124.365 229.789 124.76 229.769C126.625 229.683 129.625 227.183 130.24 225.192ZM134.519 219.894C135.981 223.519 136.115 223.606 137.221 221.712C140.337 216.385 137.846 207.125 132.404 203.808C123.269 198.24 111.538 204.596 111.538 215.106C111.538 217.125 111.971 219.962 112.5 221.404C113.462 224.039 113.462 224.039 114.798 220.827C118.731 211.385 130.846 210.808 134.519 219.894ZM77.1346 214.183C34.6731 170.827 64.6635 98.0866 125 98.0866C185.125 98.0866 215.808 172.798 172.779 214.423C162 224.856 180.865 214.577 194.356 202.673C265.577 139.817 220.577 21.5578 125.212 20.9424C31.6731 20.3366 -14.9519 137.039 53.3654 200.779C57.5096 204.644 65.3654 210.596 70.8365 214C76.2981 217.404 81.2788 220.192 81.8942 220.192C82.5096 220.192 80.3654 217.49 77.1346 214.183ZM99.4231 215.779C97.1442 210.327 98.0096 200.615 101.346 194.231C110.962 175.846 139.077 175.952 148.75 194.414C151.865 200.346 152.51 211.423 150.077 217.192C148 222.115 151.885 219.673 156.269 213.298C170.327 192.865 162.163 164.337 139.635 155.173C109.721 143.01 79.0096 171.01 88.3846 201.894C89.7308 206.308 92.0192 210.837 94.7596 214.49C97.1154 217.625 99.3269 220.192 99.6827 220.192C100.99 220.192 100.952 219.433 99.4231 215.779ZM88.625 214.5C70.7308 189.798 87.7692 152.683 119.24 147.817C154.856 142.298 182.279 185.644 161.404 214.452C157.048 220.471 158.75 220.135 166.452 213.442C208.913 176.539 184.673 106.125 128.519 103.221C76.0192 100.51 43.1442 159.519 73.3846 202.202C76.1827 206.144 81.1442 211.596 84.4231 214.308C87.7019 217.01 90.6442 219.067 90.9615 218.875C91.2788 218.683 90.2308 216.712 88.625 214.5ZM106.49 215.029C106.346 205.433 115.067 196.894 125 196.894C135.029 196.894 143.606 205.385 143.538 215.269C143.519 219.712 143.519 219.712 145.288 215.865C151.74 201.894 140.721 185.26 125.019 185.26C114.231 185.26 104.481 193.789 103.24 204.308C102.817 207.904 103.115 210.962 104.202 214.356C105.067 217.039 105.942 219.231 106.163 219.231C106.375 219.231 106.529 217.337 106.49 215.029Z" fill="#E7E7FF"/>
<path d="M257.168 150.672C260.923 161.851 268.176 167.44 278.928 167.44C286.181 167.44 291.216 165.392 294.032 161.296C296.933 157.115 298.384 151.397 298.384 144.144V80.4H302.224V144.144C302.224 162.235 294.459 171.28 278.928 171.28C271.589 171.28 265.915 169.445 261.904 165.776C257.979 162.107 254.864 157.072 252.56 150.672H257.168ZM333.444 166.16H375.172L348.932 104.336L321.028 170H316.932L348.932 94.48L380.932 170H333.444V166.16ZM426.767 132.752L444.175 170H439.951L422.031 131.6C422.202 131.515 422.927 131.173 424.207 130.576C425.572 129.893 426.511 129.424 427.023 129.168C427.535 128.827 428.388 128.272 429.583 127.504C430.778 126.736 431.674 126.011 432.271 125.328C432.868 124.56 433.508 123.707 434.191 122.768C434.959 121.744 435.514 120.635 435.855 119.44C436.196 118.16 436.367 116.795 436.367 115.344C436.367 109.968 433.807 106 428.687 103.44C423.567 100.88 417.21 99.6 409.615 99.6H399.375V170H395.535V95.76H409.615C419.684 95.76 427.279 97.5093 432.399 101.008C437.604 104.507 440.207 109.285 440.207 115.344C440.207 119.269 438.884 122.768 436.239 125.84C433.594 128.827 430.436 131.131 426.767 132.752ZM515.679 95.76L483.679 171.28L451.679 95.76H455.775L483.679 161.424L511.583 95.76H515.679ZM530.16 95.76H534V170H530.16V95.76ZM577.869 94.224C588.45 94.224 595.96 96.5707 600.397 101.264L597.837 104.08C593.741 100.069 587.256 98.064 578.381 98.064C565.069 98.064 558.413 103.355 558.413 113.936C558.413 118.032 560.034 121.317 563.277 123.792C566.52 126.181 570.445 128.016 575.053 129.296C579.746 130.576 584.397 131.941 589.005 133.392C593.698 134.757 597.666 137.019 600.909 140.176C604.152 143.248 605.773 147.301 605.773 152.336C605.773 158.224 603.341 162.917 598.477 166.416C593.613 169.915 586.573 171.664 577.357 171.664C572.834 171.664 568.354 171.067 563.917 169.872C559.565 168.677 556.322 166.928 554.189 164.624L556.749 161.808C561.101 165.819 567.8 167.824 576.845 167.824C585.122 167.824 591.352 166.288 595.533 163.216C599.8 160.144 601.933 156.56 601.933 152.464C601.933 148.197 600.312 144.741 597.069 142.096C593.826 139.451 589.858 137.488 585.165 136.208C580.557 134.843 575.906 133.477 571.213 132.112C566.605 130.661 562.68 128.443 559.437 125.456C556.194 122.469 554.573 118.544 554.573 113.68C554.573 107.109 556.749 102.245 561.101 99.088C565.538 95.8453 571.128 94.224 577.869 94.224Z" fill="#E7E7FF"/>
</svg>
