<?xml version="1.0" encoding="UTF-8"?>
<!DOCTYPE svg PUBLIC "-//W3C//DTD SVG 1.1//EN" "http://www.w3.org/Graphics/SVG/1.1/DTD/svg11.dtd">
<svg xmlns="http://www.w3.org/2000/svg" version="1.1" width="96px" height="96px" style="shape-rendering:geometricPrecision; text-rendering:geometricPrecision; image-rendering:optimizeQuality; fill-rule:evenodd; clip-rule:evenodd" xmlns:xlink="http://www.w3.org/1999/xlink">
<g><path style="opacity:0.937" fill="#000000" d="M 62.5,3.5 C 85.4133,2.31875 94.5799,12.9854 90,35.5C 82.7495,47.14 72.5828,50.64 59.5,46C 47.8733,38.791 44.3733,28.6243 49,15.5C 52.2246,9.98558 56.7246,5.98558 62.5,3.5 Z M 68.5,10.5 C 69.4959,10.4142 70.3292,10.7476 71,11.5C 71.4988,15.4862 71.6655,19.4862 71.5,23.5C 75.5138,23.3345 79.5138,23.5012 83.5,24C 84.8333,25 84.8333,26 83.5,27C 79.5138,27.4988 75.5138,27.6655 71.5,27.5C 71.6655,31.5138 71.4988,35.5138 71,39.5C 70,40.8333 69,40.8333 68,39.5C 67.5012,35.5138 67.3345,31.5138 67.5,27.5C 63.4862,27.6655 59.4862,27.4988 55.5,27C 54.1667,26 54.1667,25 55.5,24C 59.4862,23.5012 63.4862,23.3345 67.5,23.5C 67.2307,19.0685 67.564,14.7352 68.5,10.5 Z"/></g>
<g><path style="opacity:0.921" fill="#000000" d="M 15.5,13.5 C 25.8548,13.1681 36.1881,13.5014 46.5,14.5C 45.9264,16.0589 45.2598,17.5589 44.5,19C 35.4252,19.0854 26.4252,19.7521 17.5,21C 15.5125,22.3189 14.3459,24.1523 14,26.5C 13.061,38.9043 13.3943,51.2376 15,63.5C 19.1278,67.0282 23.9611,68.3616 29.5,67.5C 29.3342,72.1785 29.5008,76.8452 30,81.5C 35.8333,77 41.6667,72.5 47.5,68C 57.5732,67.9242 67.5732,67.2575 77.5,66C 79.4875,64.6811 80.6541,62.8477 81,60.5C 81.3333,56.1667 81.6667,51.8333 82,47.5C 83.9552,46.5467 85.6218,45.2134 87,43.5C 87.6667,50.8333 87.6667,58.1667 87,65.5C 85.8333,69.3333 83.3333,71.8333 79.5,73C 70.1667,73.3333 60.8333,73.6667 51.5,74C 44.4336,80.1893 36.767,85.356 28.5,89.5C 26.626,89.6102 25.126,88.9436 24,87.5C 23.5008,82.8452 23.3342,78.1785 23.5,73.5C 16.2602,74.6315 11.0936,71.9648 8,65.5C 7.33333,50.8333 7.33333,36.1667 8,21.5C 9.35318,17.6499 11.8532,14.9832 15.5,13.5 Z"/></g>
</svg>
