<?xml version="1.0" encoding="UTF-8"?>
<!DOCTYPE svg PUBLIC "-//W3C//DTD SVG 1.1//EN" "http://www.w3.org/Graphics/SVG/1.1/DTD/svg11.dtd">
<svg xmlns="http://www.w3.org/2000/svg" version="1.1" width="100px" height="100px" style="shape-rendering:geometricPrecision; text-rendering:geometricPrecision; image-rendering:optimizeQuality; fill-rule:evenodd; clip-rule:evenodd" xmlns:xlink="http://www.w3.org/1999/xlink">
<g><path style="opacity:0.749" fill="#000000" d="M 37.5,63.5 C 37.5,62.8333 37.1667,62.5 36.5,62.5C 36.5,61.8333 36.1667,61.5 35.5,61.5C 30.6576,56.491 25.9909,51.3243 21.5,46C 21.6448,45.228 21.9781,44.5613 22.5,44C 28.3803,42.7211 34.047,40.8877 39.5,38.5C 41.2224,28.9963 44.889,20.3297 50.5,12.5C 48.9288,9.9773 49.4288,7.9773 52,6.5C 65.3044,18.8038 78.3044,31.4705 91,44.5C 91.4935,46.1341 91.6602,47.8008 91.5,49.5C 89.7376,49.6427 88.0709,49.3094 86.5,48.5C 78.4418,53.6955 69.7752,57.5288 60.5,60C 58.7714,64.1238 56.7714,68.1238 54.5,72C 56.0897,74.4798 55.5897,76.3132 53,77.5C 47.6757,73.0091 42.509,68.3424 37.5,63.5 Z M 54.5,16.5 C 63.965,25.4644 73.2984,34.6311 82.5,44C 75.0774,49.5909 66.7441,53.2576 57.5,55C 54.9486,59.2707 52.782,63.7707 51,68.5C 44.1667,61.6667 37.3333,54.8333 30.5,48C 35.2099,45.8947 39.7099,43.3947 44,40.5C 46.1515,31.8681 49.6515,23.8681 54.5,16.5 Z"/></g>
<g><path style="opacity:0.794" fill="#000000" d="M 35.5,61.5 C 36.1667,61.5 36.5,61.8333 36.5,62.5C 37.1667,62.5 37.5,62.8333 37.5,63.5C 29.2583,73.2459 20.425,82.5792 11,91.5C 9.83333,90.3333 8.66667,89.1667 7.5,88C 16.4208,78.575 25.7541,69.7417 35.5,61.5 Z"/></g>
<line x1="0" y1="0" x2="100" y2="100" stroke="currentColor" stroke-width="2" />
</svg>
